<svg xmlns="http://www.w3.org/2000/svg" width="95" height="110.833" viewBox="0 0 95 110.833">
  <path id="iconfinder_database_298757" d="M47.5,174.833C21.272,174.833,0,167.736,0,159V143.167a6.645,6.645,0,0,1,1.678-3.958c5.3,6.819,23.711,11.875,45.822,11.875s40.527-5.056,45.822-11.875A6.645,6.645,0,0,1,95,143.167V159C95,167.736,73.724,174.833,47.5,174.833Zm0-31.667c-26.228,0-47.5-7.1-47.5-15.833V111.5a5.372,5.372,0,0,1,.742-2.462h0a8.248,8.248,0,0,1,.935-1.5c5.3,6.815,23.711,11.875,45.822,11.875s40.527-5.06,45.822-11.875a8.242,8.242,0,0,1,.935,1.5h0A5.372,5.372,0,0,1,95,111.5v15.833C95,136.07,73.724,143.167,47.5,143.167Zm0-31.667C21.272,111.5,0,104.407,0,95.667V79.833C0,71.093,21.272,64,47.5,64S95,71.093,95,79.833V95.667C95,104.407,73.724,111.5,47.5,111.5Zm0-39.583c-17.488,0-31.667,3.537-31.667,7.917S30.012,87.75,47.5,87.75s31.667-3.537,31.667-7.917S64.988,71.917,47.5,71.917Z" transform="translate(0 -64)" fill="#fff"/>
</svg>
