<svg xmlns="http://www.w3.org/2000/svg" width="119.428" height="110.897" viewBox="0 0 119.428 110.897">
  <path id="iconfinder_comment-discussion_298752" d="M34.122,179.183V153.592H8.531C0,153.592,0,162.122,0,162.122v42.653c0,8.264,8.531,8.531,8.531,8.531h8.531V238.9l25.858-25.592H68.511s8.264-.533,8.264-8.531v-8.53H51.183C34.122,196.244,34.122,179.183,34.122,179.183ZM110.9,128H51.183c-8.531,0-8.531,8.531-8.531,8.531v42.653c0,8,8.264,8.531,8.264,8.531H76.508l25.858,25.592V187.714H110.9s8.531-.267,8.531-8.531V136.531C119.428,128,110.9,128,110.9,128Z" transform="translate(0 -128)" fill="#fff"/>
</svg>
