<svg xmlns="http://www.w3.org/2000/svg" width="95" height="110.833" viewBox="0 0 95 110.833">
  <path id="iconfinder_server_298866" d="M0,71.917V87.75s.236,7.917,7.917,7.917H87.083C94.86,95.667,95,87.75,95,87.75V71.917S94.937,64,87.083,64H7.916C-.113,64,0,71.917,0,71.917ZM0,111.5v15.833s.236,7.917,7.917,7.917H87.083c7.778,0,7.917-7.917,7.917-7.917V111.5s-.062-7.917-7.917-7.917H7.916C-.113,103.583,0,111.5,0,111.5Zm0,39.583v15.833s.236,7.917,7.917,7.917H87.083c7.778,0,7.917-7.917,7.917-7.917V151.083s-.062-7.917-7.917-7.917H7.916C-.113,143.167,0,151.083,0,151.083Zm7.917-23.75V111.5h7.917v15.833Zm15.833,0V111.5h7.917v15.833Zm15.833,0V111.5H47.5v15.833Zm15.833,0V111.5h7.917v15.833Zm23.75-7.917V111.5h7.917v7.917ZM7.916,87.75V71.917h7.917V87.75Zm15.833,0V71.917h7.917V87.75Zm15.833,0V71.917H47.5V87.75Zm15.833,0V71.917h7.917V87.75Zm23.75-7.917V71.917h7.917v7.917ZM7.916,166.917V151.083h7.917v15.833Zm15.833,0V151.083h7.917v15.833Zm15.833,0V151.083H47.5v15.833Zm15.833,0V151.083h7.917v15.833ZM79.166,159v-7.917h7.917V159Z" transform="translate(0.001 -64)" fill="#fff"/>
</svg>
